<?xml version="1.0" encoding="UTF-8"?><svg id="Layer_1" xmlns="http://www.w3.org/2000/svg" viewBox="0 0 1920 613.3"><defs><style>.cls-1{fill:#1434cb;stroke-width:0px;}</style></defs><path class="cls-1" d="m732.27,10.85l-260.73,593.18h-164.68l-117.59-473.4c-7.14-29.14-13.52-39.84-36.28-52.1C115.82,58.49,54.24,39.71,0,28.05L3.91,10.85h265.12c33.77,0,63.86,22.13,70.99,60.47l60.8,343.26L568.63,10.85h163.64Zm639.69,399.5c2.89-156.54-217.47-165.18-214.97-235.13.79-21.27,21.67-43.88,66.78-49.68,22.33-2.86,83.92-5.09,153.22,26.53l29.14-125.77c-37.33-13.41-85.36-26.3-145.4-26.3-153.98,0-263.51,80.64-265.99,196.07-2.23,85.43,75.49,133.04,134.15,161.45,60.26,29.07,80.36,47.71,79.77,73.71-1.01,39.82-49.22,57.37-94.07,58.06-78.34,1.2-123.5-20.86-159.48-37.48l-30.03,129.99c36.14,16.45,103.14,30.8,172.81,31.5,163.68,0,271.84-79.6,274.07-202.96m403.95,193.68h144.09L1802.53,10.85h-132.98c-29.91,0-55.37,17.12-66.93,43.5l-241.47,549.67h163.56l33.75-88.62h199.86l17.59,88.62Zm-170.91-210.18l85.14-222.72,44.09,222.72h-129.23ZM954.89,10.85l-137.14,593.18h-155.82L799.13,10.85h155.76Z"/></svg>