<?xml version="1.0" encoding="UTF-8"?><svg id="Layer_1" xmlns="http://www.w3.org/2000/svg" xmlns:xlink="http://www.w3.org/1999/xlink" viewBox="0 0 137.46 59.26"><defs><style>.cls-1{clip-path:url(#clippath);}.cls-2{fill:none;}.cls-2,.cls-3{stroke-width:0px;}.cls-4{clip-path:url(#clippath-1);}.cls-5{clip-path:url(#clippath-3);}.cls-6{clip-path:url(#clippath-2);}.cls-3{fill:#fff;}</style><clipPath id="clippath"><rect class="cls-2" x="1.39" y=".23" width="136.07" height="59.03"/></clipPath><clipPath id="clippath-1"><rect class="cls-2" x="47.37" y="50.26" width="90.09" height="8.99"/></clipPath><clipPath id="clippath-2"><rect class="cls-2" x="0" y="0" width="137.41" height="44.37"/></clipPath><clipPath id="clippath-3"><rect class="cls-2" x="47.37" y="50.26" width="90.09" height="8.99"/></clipPath></defs><g class="cls-1"><path class="cls-3" d="m69.06,1l-9.72,42.04h-11.04L58.03,1h11.04Zm46.07,27.14l6.03-15.78,3.12,15.78h-9.16Zm12.11,14.89h10.21L129.14,1h-9.42c-2.12,0-3.92,1.21-4.74,3.08l-17.11,38.95h11.59l2.39-6.28h14.17l1.25,6.28Zm-28.63-13.73c.2-11.09-15.41-11.71-15.24-16.66.06-1.51,1.54-3.11,4.73-3.52,1.58-.2,5.95-.36,10.86,1.88l2.07-8.91c-2.65-.95-6.05-1.86-10.3-1.86-10.91,0-18.68,5.72-18.85,13.9-.16,6.05,5.35,9.43,9.51,11.44,4.27,2.06,5.69,3.38,5.65,5.22-.07,2.82-3.49,4.07-6.67,4.12-5.55.08-8.75-1.48-11.3-2.66l-2.13,9.21c2.56,1.17,7.31,2.18,12.25,2.23,11.6,0,19.26-5.64,19.42-14.38M53.29,1l-18.48,42.04h-11.67L14.81,9.49c-.51-2.07-.96-2.82-2.57-3.69-2.63-1.42-7-2.75-10.84-3.58l.28-1.22h18.79c2.39,0,4.53,1.57,5.03,4.28l4.31,24.33L41.69,1h11.6Z"/></g><g class="cls-4"><g class="cls-6"><path class="cls-3" d="m52.17.78l-17.99,42.92h-11.74L13.59,9.45c-.54-2.11-1.01-2.88-2.64-3.77C8.28,4.23,3.88,2.88,0,2.03L.26.78h18.89c2.41,0,4.57,1.6,5.12,4.38l4.68,24.84L40.51.78h11.67Zm45.99,28.91c.05-11.33-15.67-11.95-15.56-17.01.03-1.54,1.5-3.18,4.71-3.6,1.59-.21,5.97-.37,10.95,1.92l1.95-9.1c-2.67-.97-6.11-1.9-10.39-1.9-10.97,0-18.7,5.83-18.76,14.19-.07,6.18,5.51,9.63,9.72,11.68,4.33,2.1,5.78,3.45,5.76,5.33-.03,2.88-3.45,4.15-6.65,4.2-5.58.09-8.82-1.51-11.4-2.71l-2.01,9.4c2.6,1.19,7.38,2.23,12.35,2.28,11.67,0,19.3-5.76,19.33-14.69m28.98,14.01h10.27L128.45.78h-9.48c-2.13,0-3.93,1.24-4.73,3.15l-16.66,39.77h11.66l2.31-6.41h14.25l1.34,6.41Zm-12.39-15.21l5.84-16.12,3.36,16.12h-9.21ZM68.04.78l-9.18,42.92h-11.1L56.94.78h11.1Z"/></g></g><path class="cls-3" d="m49.99,54.76h1.31l-.22,1.39h-1.31l.22-1.39Zm1.77-2.78l-.33,2.01h-1.31l.33-2.01h-.72l-.33,2.01h-1.06l-.14.77h1.07l-.23,1.39h-1.02l-.14.77h1.04l-.36,2.2h.73l.36-2.2h1.31l-.36,2.2h.72l.36-2.2h1.08l.14-.77h-1.1l.23-1.39h1.05l.14-.77h-1.06l.33-2.01h-.72Z"/><polygon class="cls-3" points="54.54 51.98 54.54 53.01 56.91 53.01 56.91 59.12 58.17 59.12 58.17 53.01 60.54 53.01 60.54 51.98 54.54 51.98"/><g class="cls-5"><path class="cls-3" d="m63.49,55.17c-.22.24-.33.61-.33,1.11v2.85h-1.13v-5.35h1.1v1.2h.04c.12-.49.32-.83.59-1.03.27-.2.58-.3.93-.3.09,0,.19,0,.28.01.09.01.16.02.19.03l-.14,1.22h-.03c-.06-.03-.14-.05-.24-.07-.1-.02-.21-.03-.34-.03-.39,0-.69.12-.91.36"/><path class="cls-3" d="m66.94,54.11c.2-.14.46-.25.78-.34.32-.09.65-.13,1.01-.13.71,0,1.25.13,1.62.4.37.27.55.72.55,1.35v3.73h-1.11v-.99h-.04c-.14.39-.35.68-.62.86-.28.18-.63.26-1.06.26-.13,0-.25-.01-.36-.03-.12-.02-.23-.05-.33-.09-.11-.04-.21-.09-.3-.15-.09-.06-.17-.14-.25-.22-.07-.08-.14-.18-.19-.28-.05-.1-.09-.22-.12-.34-.03-.12-.04-.25-.04-.4,0-.53.16-.91.49-1.13.33-.22.76-.38,1.29-.47.46-.08.8-.14,1.02-.2.23-.06.39-.13.49-.22v-.23c0-.33-.07-.57-.24-.72-.17-.15-.48-.23-.94-.23-.33,0-.64.05-.94.15-.3.1-.57.26-.81.47h-.03l.13-1.03Zm2.81,2.25c-.08.07-.23.13-.45.19-.22.06-.49.12-.81.17-.28.04-.5.13-.66.26-.17.13-.25.34-.25.63,0,.27.08.47.24.61s.37.21.65.21c.1,0,.2,0,.29-.03.09-.02.18-.04.26-.08.08-.03.15-.07.22-.12s.13-.1.18-.15c.05-.05.1-.11.14-.17.04-.06.07-.13.1-.19.03-.07.05-.13.07-.2.02-.07.02-.13.02-.2v-.94Z"/><polygon class="cls-3" points="73.81 53.77 75.31 57.83 75.33 57.83 76.83 53.77 77.88 53.77 75.75 59.12 74.67 59.12 72.56 53.77 73.81 53.77"/><path class="cls-3" d="m83.29,58.19c.3-.11.57-.26.8-.43h.03l-.1.95c-.16.13-.4.26-.75.37-.34.12-.76.17-1.25.17-.19,0-.37-.01-.54-.04-.17-.03-.34-.07-.49-.13-.16-.06-.31-.12-.45-.2-.14-.08-.27-.17-.39-.27-.12-.1-.23-.21-.32-.33-.1-.12-.18-.25-.26-.39-.08-.14-.14-.28-.19-.44-.05-.16-.09-.32-.12-.48-.03-.17-.04-.34-.04-.52s.01-.36.04-.52c.03-.17.07-.33.12-.48.05-.16.11-.3.19-.44.08-.14.16-.27.25-.39.09-.12.2-.23.31-.33s.23-.19.36-.27c.13-.08.26-.15.41-.2.14-.05.29-.09.45-.12.15-.03.32-.04.48-.04.22,0,.42.01.61.05.19.03.36.08.51.14.15.06.29.13.42.22.12.09.24.18.33.29.1.11.18.23.25.36.07.13.13.27.17.42.04.15.08.3.1.46.02.16.03.33.03.51,0,.06,0,.14,0,.23,0,.09-.01.17-.02.24h-3.83v.02c.02.56.18,1,.48,1.31.3.32.72.47,1.27.47.45,0,.83-.06,1.13-.17m-2.4-3.36c-.24.25-.39.6-.46,1.05h2.74v-.11c0-.39-.1-.71-.29-.95-.19-.24-.54-.36-1.03-.36-.4,0-.72.12-.96.37"/><rect class="cls-3" x="86.29" y="51.7" width="1.14" height="7.43"/><polygon class="cls-3" points="90.56 51.98 92.12 57.61 92.13 57.61 93.65 51.98 94.89 51.98 96.36 57.62 96.38 57.62 97.95 51.98 99 51.98 96.94 59.12 95.55 59.12 94.13 53.89 94.1 53.89 92.7 59.12 91.34 59.12 89.26 51.98 90.56 51.98"/><path class="cls-3" d="m100.93,52.08c.13-.11.29-.17.49-.17s.35.06.48.17c.13.11.19.26.19.44s-.06.32-.19.43c-.12.11-.28.17-.48.17s-.36-.06-.49-.17c-.13-.11-.19-.26-.19-.43s.06-.33.19-.44m1.05,7.04h-1.14v-5.35h1.14v5.35Z"/><path class="cls-3" d="m106.04,58.17c.14.11.32.16.54.16.19,0,.37-.02.52-.05.15-.03.28-.08.38-.13h.02l-.1.92c-.09.05-.24.09-.44.13-.21.04-.4.06-.57.06-.55,0-.96-.12-1.25-.36-.29-.24-.43-.62-.43-1.16v-3.05h-.98l.12-.78.85-.13v-1.18l1.14-.14v1.32h1.56l-.13.92h-1.43v2.86c0,.3.07.5.21.61"/><path class="cls-3" d="m110.8,54.97c-.26.24-.39.57-.39.98v3.17h-1.15v-7.43h1.12v3.2h.04c.03-.11.07-.22.13-.32.05-.1.11-.18.17-.26.06-.08.13-.15.21-.22.08-.07.16-.12.24-.17.08-.05.17-.09.26-.13.09-.04.18-.07.27-.09.09-.03.19-.04.28-.05.09,0,.19-.01.28-.01.58,0,1.02.15,1.34.45.31.3.47.76.47,1.38v3.65h-1.14v-3.34c0-.4-.09-.7-.25-.89s-.47-.29-.9-.29c-.39,0-.72.12-.98.36"/><polygon class="cls-3" points="117.2 51.98 119.14 57.77 119.18 57.77 121.1 51.98 122.26 51.98 119.77 59.12 118.36 59.12 115.86 51.98 117.2 51.98"/><path class="cls-3" d="m124.16,52.08c.13-.11.29-.17.48-.17s.35.06.48.17c.13.11.19.26.19.44s-.06.32-.19.43c-.12.11-.29.17-.48.17s-.36-.06-.48-.17c-.13-.11-.19-.26-.19-.43s.06-.33.19-.44m1.05,7.04h-1.14v-5.35h1.14v5.35Z"/><path class="cls-3" d="m127.42,54.85c.03-.13.09-.25.15-.37.07-.11.15-.21.24-.3.09-.09.2-.17.32-.24.12-.07.25-.12.39-.17.14-.04.29-.08.45-.1.16-.02.32-.03.49-.03.35,0,.65.03.91.09.26.06.46.13.61.21l.04.96h-.02s-.11-.07-.17-.1c-.07-.03-.14-.06-.21-.09-.07-.03-.15-.06-.24-.08-.08-.02-.16-.04-.25-.06-.08-.02-.17-.04-.25-.05-.08-.02-.17-.03-.25-.03-.08,0-.16,0-.24,0-.29,0-.52.04-.7.13-.18.08-.27.25-.27.5s.09.41.27.51c.18.09.47.2.86.31.12.04.23.07.35.1.11.03.22.07.32.1.1.03.2.07.29.11.09.04.18.08.25.12.08.04.15.09.22.15.07.05.12.11.17.18s.09.14.13.22c.04.08.06.17.08.27.02.1.03.21.03.34,0,.58-.19,1.01-.56,1.31-.38.29-.89.44-1.54.44-.38,0-.73-.04-1.05-.12-.32-.08-.58-.18-.79-.3l-.08-1h.02c.23.19.52.33.87.44.35.1.69.15,1.02.15.36,0,.63-.06.79-.16.17-.11.25-.29.25-.53s-.1-.4-.3-.5c-.2-.1-.5-.2-.92-.32-.11-.03-.21-.06-.32-.09-.1-.03-.2-.06-.3-.09s-.19-.07-.27-.1c-.08-.04-.16-.08-.24-.12-.07-.04-.14-.09-.2-.15-.06-.06-.12-.12-.17-.19s-.09-.15-.12-.23c-.03-.09-.06-.18-.07-.29-.02-.11-.03-.23-.03-.36,0-.16.02-.3.05-.43"/><path class="cls-3" d="m133.5,54.11c.2-.14.46-.25.78-.34.32-.09.65-.13,1.01-.13.71,0,1.26.13,1.62.4.37.27.55.72.55,1.35v3.73h-1.11v-.99h-.04c-.14.39-.35.68-.62.86-.28.18-.63.26-1.06.26-.13,0-.25-.01-.36-.03-.12-.02-.23-.05-.33-.09-.11-.04-.21-.09-.3-.15-.09-.06-.17-.14-.25-.22-.08-.08-.14-.18-.19-.28-.05-.1-.09-.22-.12-.34-.03-.12-.04-.25-.04-.4,0-.53.16-.91.49-1.13.33-.22.76-.38,1.29-.47.46-.08.8-.14,1.02-.2.23-.06.39-.13.49-.22v-.23c0-.33-.07-.57-.24-.72-.17-.15-.48-.23-.94-.23-.33,0-.64.05-.94.15-.3.1-.57.26-.81.47h-.03l.13-1.03Zm2.81,2.25c-.08.07-.23.13-.45.19-.22.06-.49.12-.81.17-.28.04-.5.13-.66.26-.17.13-.25.34-.25.63,0,.27.08.47.24.61.16.14.37.21.65.21.1,0,.2,0,.29-.03.09-.02.18-.04.26-.08.08-.03.15-.07.22-.12s.13-.1.18-.15c.05-.05.1-.11.14-.17.04-.06.08-.13.1-.19s.05-.13.07-.2c.02-.07.02-.13.02-.2v-.94Z"/></g></svg>